<mxfile host="Electron" modified="2023-05-31T14:39:23.283Z" agent="Mozilla/5.0 (Macintosh; Intel Mac OS X 10_15_7) AppleWebKit/537.36 (KHTML, like Gecko) draw.io/21.2.8 Chrome/112.0.5615.165 Electron/24.2.0 Safari/537.36" etag="zHhqLm0ES05vvh5hT_av" version="21.2.8" type="device">
  <diagram id="G2xS71eN_LXdSD51KXfB" name="Page-1">
    <mxGraphModel dx="2138" dy="1384" grid="1" gridSize="10" guides="1" tooltips="1" connect="1" arrows="1" fold="1" page="0" pageScale="1" pageWidth="1100" pageHeight="850" math="0" shadow="0">
      <root>
        <mxCell id="0" />
        <mxCell id="1" parent="0" />
        <mxCell id="YW8mL61ox357DzGH6zIs-119" value="" style="rounded=1;whiteSpace=wrap;html=1;fillColor=none;arcSize=4;" parent="1" vertex="1">
          <mxGeometry x="3630" y="20" width="220" height="890" as="geometry" />
        </mxCell>
        <mxCell id="YW8mL61ox357DzGH6zIs-111" value="" style="rounded=1;whiteSpace=wrap;html=1;fillColor=none;arcSize=4;" parent="1" vertex="1">
          <mxGeometry x="3270" y="20" width="220" height="890" as="geometry" />
        </mxCell>
        <mxCell id="YW8mL61ox357DzGH6zIs-103" value="" style="rounded=1;whiteSpace=wrap;html=1;fillColor=none;arcSize=4;" parent="1" vertex="1">
          <mxGeometry x="2730" y="20" width="430" height="890" as="geometry" />
        </mxCell>
        <mxCell id="YW8mL61ox357DzGH6zIs-29" value="" style="rounded=1;whiteSpace=wrap;html=1;fillColor=none;arcSize=4;" parent="1" vertex="1">
          <mxGeometry x="1200" y="20" width="440" height="890" as="geometry" />
        </mxCell>
        <mxCell id="YW8mL61ox357DzGH6zIs-54" value="" style="rounded=1;whiteSpace=wrap;html=1;fillColor=none;arcSize=4;" parent="1" vertex="1">
          <mxGeometry x="1740" y="20" width="420" height="890" as="geometry" />
        </mxCell>
        <mxCell id="YW8mL61ox357DzGH6zIs-26" value="" style="rounded=1;whiteSpace=wrap;html=1;fillColor=none;arcSize=4;" parent="1" vertex="1">
          <mxGeometry x="680" y="20" width="390" height="890" as="geometry" />
        </mxCell>
        <mxCell id="YW8mL61ox357DzGH6zIs-16" value="" style="rounded=1;whiteSpace=wrap;html=1;fillColor=none;arcSize=4;" parent="1" vertex="1">
          <mxGeometry x="180" y="20" width="390" height="890" as="geometry" />
        </mxCell>
        <mxCell id="YW8mL61ox357DzGH6zIs-3" value="Code Protection Plan" style="strokeWidth=2;html=1;shape=mxgraph.flowchart.document2;whiteSpace=wrap;size=0.25;fillColor=#FFE6CC;" parent="1" vertex="1">
          <mxGeometry x="200" y="40" width="100" height="60" as="geometry" />
        </mxCell>
        <mxCell id="YW8mL61ox357DzGH6zIs-137" style="edgeStyle=orthogonalEdgeStyle;rounded=0;orthogonalLoop=1;jettySize=auto;html=1;entryX=0;entryY=0.5;entryDx=0;entryDy=0;strokeColor=#3224FF;" parent="1" source="YW8mL61ox357DzGH6zIs-4" target="YW8mL61ox357DzGH6zIs-133" edge="1">
          <mxGeometry relative="1" as="geometry" />
        </mxCell>
        <mxCell id="YW8mL61ox357DzGH6zIs-4" value="Cybersecurity Monitoring Plan" style="strokeWidth=2;html=1;shape=mxgraph.flowchart.document2;whiteSpace=wrap;size=0.25;fillColor=#CCE5FF;" parent="1" vertex="1">
          <mxGeometry x="200" y="680" width="100" height="60" as="geometry" />
        </mxCell>
        <mxCell id="YW8mL61ox357DzGH6zIs-146" style="edgeStyle=orthogonalEdgeStyle;rounded=0;orthogonalLoop=1;jettySize=auto;html=1;entryX=0;entryY=0.5;entryDx=0;entryDy=0;strokeColor=#3224FF;" parent="1" source="YW8mL61ox357DzGH6zIs-5" target="YW8mL61ox357DzGH6zIs-144" edge="1">
          <mxGeometry relative="1" as="geometry" />
        </mxCell>
        <mxCell id="YW8mL61ox357DzGH6zIs-5" value="Decommissioning Plan" style="strokeWidth=2;html=1;shape=mxgraph.flowchart.document2;whiteSpace=wrap;size=0.25;fillColor=#CCE5FF;" parent="1" vertex="1">
          <mxGeometry x="200" y="440" width="100" height="60" as="geometry" />
        </mxCell>
        <mxCell id="YW8mL61ox357DzGH6zIs-203" style="edgeStyle=orthogonalEdgeStyle;rounded=0;orthogonalLoop=1;jettySize=auto;html=1;entryX=0;entryY=0.5;entryDx=0;entryDy=0;strokeColor=#3224FF;" parent="1" source="YW8mL61ox357DzGH6zIs-6" target="YW8mL61ox357DzGH6zIs-200" edge="1">
          <mxGeometry relative="1" as="geometry" />
        </mxCell>
        <mxCell id="YW8mL61ox357DzGH6zIs-6" value="&lt;br&gt;Cybersecurity Requirements Catalog" style="strokeWidth=2;html=1;shape=mxgraph.flowchart.database;whiteSpace=wrap;fillColor=#CCE5FF;" parent="1" vertex="1">
          <mxGeometry x="460" y="510" width="90" height="80" as="geometry" />
        </mxCell>
        <mxCell id="YW8mL61ox357DzGH6zIs-130" style="edgeStyle=orthogonalEdgeStyle;rounded=0;orthogonalLoop=1;jettySize=auto;html=1;entryX=0;entryY=0.5;entryDx=0;entryDy=0;strokeColor=#3224FF;" parent="1" source="YW8mL61ox357DzGH6zIs-7" target="YW8mL61ox357DzGH6zIs-126" edge="1">
          <mxGeometry relative="1" as="geometry" />
        </mxCell>
        <mxCell id="YW8mL61ox357DzGH6zIs-7" value="Deployment Plan" style="strokeWidth=2;html=1;shape=mxgraph.flowchart.document2;whiteSpace=wrap;size=0.25;fillColor=#FFE6CC;" parent="1" vertex="1">
          <mxGeometry x="200" y="280" width="100" height="60" as="geometry" />
        </mxCell>
        <mxCell id="YW8mL61ox357DzGH6zIs-19" style="edgeStyle=orthogonalEdgeStyle;rounded=0;orthogonalLoop=1;jettySize=auto;html=1;entryX=0;entryY=0.5;entryDx=0;entryDy=0;entryPerimeter=0;" parent="1" source="YW8mL61ox357DzGH6zIs-8" target="YW8mL61ox357DzGH6zIs-9" edge="1">
          <mxGeometry relative="1" as="geometry" />
        </mxCell>
        <mxCell id="YW8mL61ox357DzGH6zIs-8" value="Global Security Goals" style="strokeWidth=2;html=1;shape=mxgraph.flowchart.document2;whiteSpace=wrap;size=0.25;fillColor=#CCE5FF;" parent="1" vertex="1">
          <mxGeometry x="200" y="520" width="100" height="60" as="geometry" />
        </mxCell>
        <mxCell id="YW8mL61ox357DzGH6zIs-20" value="" style="edgeStyle=orthogonalEdgeStyle;rounded=0;orthogonalLoop=1;jettySize=auto;html=1;" parent="1" source="YW8mL61ox357DzGH6zIs-9" target="YW8mL61ox357DzGH6zIs-6" edge="1">
          <mxGeometry relative="1" as="geometry" />
        </mxCell>
        <mxCell id="YW8mL61ox357DzGH6zIs-9" value="Global Security Requirements" style="strokeWidth=2;html=1;shape=mxgraph.flowchart.document2;whiteSpace=wrap;size=0.25;fillColor=#CCE5FF;" parent="1" vertex="1">
          <mxGeometry x="330" y="520" width="100" height="60" as="geometry" />
        </mxCell>
        <mxCell id="YW8mL61ox357DzGH6zIs-141" style="edgeStyle=orthogonalEdgeStyle;rounded=0;orthogonalLoop=1;jettySize=auto;html=1;entryX=0;entryY=0.5;entryDx=0;entryDy=0;strokeColor=#3224FF;" parent="1" source="YW8mL61ox357DzGH6zIs-10" target="YW8mL61ox357DzGH6zIs-140" edge="1">
          <mxGeometry relative="1" as="geometry" />
        </mxCell>
        <mxCell id="YW8mL61ox357DzGH6zIs-10" value="Incident Response Plan" style="strokeWidth=2;html=1;shape=mxgraph.flowchart.document2;whiteSpace=wrap;size=0.25;fillColor=#CCE5FF;" parent="1" vertex="1">
          <mxGeometry x="200" y="760" width="100" height="60" as="geometry" />
        </mxCell>
        <mxCell id="YW8mL61ox357DzGH6zIs-134" style="edgeStyle=orthogonalEdgeStyle;rounded=0;orthogonalLoop=1;jettySize=auto;html=1;entryX=0;entryY=0.5;entryDx=0;entryDy=0;exitX=1;exitY=0.25;exitDx=0;exitDy=0;exitPerimeter=0;strokeColor=#3224FF;" parent="1" source="YW8mL61ox357DzGH6zIs-11" target="YW8mL61ox357DzGH6zIs-132" edge="1">
          <mxGeometry relative="1" as="geometry" />
        </mxCell>
        <mxCell id="YW8mL61ox357DzGH6zIs-11" value="List of Approved Tools" style="strokeWidth=2;html=1;shape=mxgraph.flowchart.document2;whiteSpace=wrap;size=0.25;fillColor=#FFE6CC;" parent="1" vertex="1">
          <mxGeometry x="200" y="120" width="100" height="60" as="geometry" />
        </mxCell>
        <mxCell id="YW8mL61ox357DzGH6zIs-12" value="Release Integrity Plan" style="strokeWidth=2;html=1;shape=mxgraph.flowchart.document2;whiteSpace=wrap;size=0.25;fillColor=#FFE6CC;" parent="1" vertex="1">
          <mxGeometry x="200" y="200" width="100" height="60" as="geometry" />
        </mxCell>
        <mxCell id="YW8mL61ox357DzGH6zIs-150" style="edgeStyle=orthogonalEdgeStyle;rounded=0;orthogonalLoop=1;jettySize=auto;html=1;entryX=0;entryY=0.5;entryDx=0;entryDy=0;strokeColor=#3224FF;" parent="1" source="YW8mL61ox357DzGH6zIs-13" target="YW8mL61ox357DzGH6zIs-148" edge="1">
          <mxGeometry relative="1" as="geometry" />
        </mxCell>
        <mxCell id="YW8mL61ox357DzGH6zIs-13" value="Threat Prioritization Plan" style="strokeWidth=2;html=1;shape=mxgraph.flowchart.document2;whiteSpace=wrap;size=0.25;fillColor=#CCE5FF;" parent="1" vertex="1">
          <mxGeometry x="200" y="600" width="100" height="60" as="geometry" />
        </mxCell>
        <mxCell id="YW8mL61ox357DzGH6zIs-18" style="edgeStyle=orthogonalEdgeStyle;rounded=0;orthogonalLoop=1;jettySize=auto;html=1;entryX=0;entryY=0.5;entryDx=0;entryDy=0;entryPerimeter=0;" parent="1" source="YW8mL61ox357DzGH6zIs-14" target="YW8mL61ox357DzGH6zIs-15" edge="1">
          <mxGeometry relative="1" as="geometry" />
        </mxCell>
        <mxCell id="YW8mL61ox357DzGH6zIs-14" value="Training Catalog" style="strokeWidth=2;html=1;shape=mxgraph.flowchart.document2;whiteSpace=wrap;size=0.25;fillColor=#CCE5FF;" parent="1" vertex="1">
          <mxGeometry x="200" y="360" width="100" height="60" as="geometry" />
        </mxCell>
        <mxCell id="YW8mL61ox357DzGH6zIs-15" value="&lt;br&gt;Training Tracking System" style="strokeWidth=2;html=1;shape=mxgraph.flowchart.database;whiteSpace=wrap;fillColor=#CCE5FF;" parent="1" vertex="1">
          <mxGeometry x="335" y="350" width="90" height="80" as="geometry" />
        </mxCell>
        <mxCell id="YW8mL61ox357DzGH6zIs-17" value="Foundation" style="text;html=1;strokeColor=none;fillColor=none;align=center;verticalAlign=middle;whiteSpace=wrap;rounded=0;" parent="1" vertex="1">
          <mxGeometry x="490" y="30" width="70" height="20" as="geometry" />
        </mxCell>
        <mxCell id="YW8mL61ox357DzGH6zIs-24" style="edgeStyle=orthogonalEdgeStyle;rounded=0;orthogonalLoop=1;jettySize=auto;html=1;entryX=0;entryY=0.5;entryDx=0;entryDy=0;entryPerimeter=0;" parent="1" source="YW8mL61ox357DzGH6zIs-22" target="YW8mL61ox357DzGH6zIs-23" edge="1">
          <mxGeometry relative="1" as="geometry" />
        </mxCell>
        <mxCell id="YW8mL61ox357DzGH6zIs-22" value="Product-level Security Goals" style="strokeWidth=2;html=1;shape=mxgraph.flowchart.document2;whiteSpace=wrap;size=0.25;fillColor=#CCE5FF;" parent="1" vertex="1">
          <mxGeometry x="700" y="520" width="100" height="60" as="geometry" />
        </mxCell>
        <mxCell id="YW8mL61ox357DzGH6zIs-27" style="edgeStyle=orthogonalEdgeStyle;rounded=0;orthogonalLoop=1;jettySize=auto;html=1;entryX=0;entryY=0.5;entryDx=0;entryDy=0;entryPerimeter=0;" parent="1" source="YW8mL61ox357DzGH6zIs-23" target="YW8mL61ox357DzGH6zIs-25" edge="1">
          <mxGeometry relative="1" as="geometry" />
        </mxCell>
        <mxCell id="YW8mL61ox357DzGH6zIs-23" value="Product-level Security Requirements" style="strokeWidth=2;html=1;shape=mxgraph.flowchart.document2;whiteSpace=wrap;size=0.25;fillColor=#CCE5FF;" parent="1" vertex="1">
          <mxGeometry x="830" y="520" width="100" height="60" as="geometry" />
        </mxCell>
        <mxCell id="YW8mL61ox357DzGH6zIs-198" style="edgeStyle=orthogonalEdgeStyle;rounded=0;orthogonalLoop=1;jettySize=auto;html=1;entryX=0;entryY=0.5;entryDx=0;entryDy=0;strokeColor=#3224FF;" parent="1" source="YW8mL61ox357DzGH6zIs-25" target="YW8mL61ox357DzGH6zIs-196" edge="1">
          <mxGeometry relative="1" as="geometry" />
        </mxCell>
        <mxCell id="YW8mL61ox357DzGH6zIs-25" value="Requirements Gate" style="strokeWidth=2;html=1;shape=mxgraph.flowchart.decision;whiteSpace=wrap;fillColor=#CCE5FF;" parent="1" vertex="1">
          <mxGeometry x="950" y="500" width="100" height="100" as="geometry" />
        </mxCell>
        <mxCell id="YW8mL61ox357DzGH6zIs-28" value="Requirements" style="text;html=1;strokeColor=none;fillColor=none;align=center;verticalAlign=middle;whiteSpace=wrap;rounded=0;" parent="1" vertex="1">
          <mxGeometry x="970" y="30" width="80" height="20" as="geometry" />
        </mxCell>
        <mxCell id="YW8mL61ox357DzGH6zIs-30" value="Design" style="text;html=1;strokeColor=none;fillColor=none;align=center;verticalAlign=middle;whiteSpace=wrap;rounded=0;" parent="1" vertex="1">
          <mxGeometry x="1580" y="30" width="40" height="20" as="geometry" />
        </mxCell>
        <mxCell id="YW8mL61ox357DzGH6zIs-42" style="edgeStyle=orthogonalEdgeStyle;rounded=0;orthogonalLoop=1;jettySize=auto;html=1;entryX=0;entryY=0.5;entryDx=0;entryDy=0;entryPerimeter=0;" parent="1" source="YW8mL61ox357DzGH6zIs-32" target="YW8mL61ox357DzGH6zIs-34" edge="1">
          <mxGeometry relative="1" as="geometry" />
        </mxCell>
        <mxCell id="YW8mL61ox357DzGH6zIs-32" value="Design Showing Security Considerations" style="strokeWidth=2;html=1;shape=mxgraph.flowchart.document2;whiteSpace=wrap;size=0.25;fillColor=#CCFFCC;" parent="1" vertex="1">
          <mxGeometry x="1230" y="520" width="100" height="60" as="geometry" />
        </mxCell>
        <mxCell id="YW8mL61ox357DzGH6zIs-48" style="edgeStyle=orthogonalEdgeStyle;rounded=0;orthogonalLoop=1;jettySize=auto;html=1;entryX=0;entryY=0.5;entryDx=0;entryDy=0;entryPerimeter=0;" parent="1" source="YW8mL61ox357DzGH6zIs-34" target="YW8mL61ox357DzGH6zIs-47" edge="1">
          <mxGeometry relative="1" as="geometry" />
        </mxCell>
        <mxCell id="YW8mL61ox357DzGH6zIs-34" value="Security Design Review Report" style="strokeWidth=2;html=1;shape=mxgraph.flowchart.document2;whiteSpace=wrap;size=0.25;fillColor=#CCE5FF;" parent="1" vertex="1">
          <mxGeometry x="1385" y="520" width="100" height="60" as="geometry" />
        </mxCell>
        <mxCell id="YW8mL61ox357DzGH6zIs-49" style="edgeStyle=orthogonalEdgeStyle;rounded=0;orthogonalLoop=1;jettySize=auto;html=1;entryX=0;entryY=0.5;entryDx=0;entryDy=0;entryPerimeter=0;" parent="1" source="YW8mL61ox357DzGH6zIs-35" target="YW8mL61ox357DzGH6zIs-47" edge="1">
          <mxGeometry relative="1" as="geometry">
            <Array as="points">
              <mxPoint x="1508" y="470" />
              <mxPoint x="1508" y="550" />
            </Array>
          </mxGeometry>
        </mxCell>
        <mxCell id="YW8mL61ox357DzGH6zIs-162" style="edgeStyle=orthogonalEdgeStyle;rounded=0;orthogonalLoop=1;jettySize=auto;html=1;entryX=0;entryY=0.5;entryDx=0;entryDy=0;exitX=1;exitY=0.25;exitDx=0;exitDy=0;exitPerimeter=0;strokeColor=#3224FF;" parent="1" source="YW8mL61ox357DzGH6zIs-35" target="YW8mL61ox357DzGH6zIs-154" edge="1">
          <mxGeometry relative="1" as="geometry" />
        </mxCell>
        <mxCell id="YW8mL61ox357DzGH6zIs-35" value="Attack Surface Analysis Report" style="strokeWidth=2;html=1;shape=mxgraph.flowchart.document2;whiteSpace=wrap;size=0.25;fillColor=#CCE5FF;" parent="1" vertex="1">
          <mxGeometry x="1385" y="440" width="100" height="60" as="geometry" />
        </mxCell>
        <mxCell id="YW8mL61ox357DzGH6zIs-161" style="edgeStyle=orthogonalEdgeStyle;rounded=0;orthogonalLoop=1;jettySize=auto;html=1;entryX=0;entryY=0.5;entryDx=0;entryDy=0;strokeColor=#0000FF;exitX=1;exitY=0.25;exitDx=0;exitDy=0;exitPerimeter=0;" parent="1" source="YW8mL61ox357DzGH6zIs-36" target="YW8mL61ox357DzGH6zIs-155" edge="1">
          <mxGeometry relative="1" as="geometry">
            <mxPoint x="1530" y="630" as="sourcePoint" />
          </mxGeometry>
        </mxCell>
        <mxCell id="PF2a_6IoUEOjOje82GA7-1" style="edgeStyle=orthogonalEdgeStyle;rounded=0;orthogonalLoop=1;jettySize=auto;html=1;exitX=1;exitY=0.5;exitDx=0;exitDy=0;exitPerimeter=0;entryX=0;entryY=0.5;entryDx=0;entryDy=0;entryPerimeter=0;" parent="1" source="YW8mL61ox357DzGH6zIs-36" target="YW8mL61ox357DzGH6zIs-37" edge="1">
          <mxGeometry relative="1" as="geometry">
            <Array as="points">
              <mxPoint x="1500" y="645" />
              <mxPoint x="1500" y="680" />
              <mxPoint x="1370" y="680" />
              <mxPoint x="1370" y="710" />
              <mxPoint x="1390" y="710" />
            </Array>
          </mxGeometry>
        </mxCell>
        <mxCell id="YW8mL61ox357DzGH6zIs-36" value="Threat Modeling Report" style="strokeWidth=2;html=1;shape=mxgraph.flowchart.document2;whiteSpace=wrap;size=0.25;fillColor=#CCE5FF;" parent="1" vertex="1">
          <mxGeometry x="1385" y="615" width="100" height="60" as="geometry" />
        </mxCell>
        <mxCell id="PF2a_6IoUEOjOje82GA7-3" style="edgeStyle=orthogonalEdgeStyle;rounded=0;orthogonalLoop=1;jettySize=auto;html=1;exitX=1;exitY=0.5;exitDx=0;exitDy=0;exitPerimeter=0;entryX=0;entryY=0.5;entryDx=0;entryDy=0;entryPerimeter=0;" parent="1" source="YW8mL61ox357DzGH6zIs-37" target="YW8mL61ox357DzGH6zIs-38" edge="1">
          <mxGeometry relative="1" as="geometry">
            <Array as="points">
              <mxPoint x="1500" y="725" />
              <mxPoint x="1500" y="760" />
              <mxPoint x="1370" y="760" />
              <mxPoint x="1370" y="790" />
              <mxPoint x="1390" y="790" />
            </Array>
          </mxGeometry>
        </mxCell>
        <mxCell id="YW8mL61ox357DzGH6zIs-37" value="Ranked/Risked Threat Report" style="strokeWidth=2;html=1;shape=mxgraph.flowchart.document2;whiteSpace=wrap;size=0.25;fillColor=#CCE5FF;" parent="1" vertex="1">
          <mxGeometry x="1385" y="695" width="100" height="60" as="geometry" />
        </mxCell>
        <mxCell id="YW8mL61ox357DzGH6zIs-52" style="edgeStyle=orthogonalEdgeStyle;rounded=0;orthogonalLoop=1;jettySize=auto;html=1;entryX=0;entryY=0.5;entryDx=0;entryDy=0;entryPerimeter=0;" parent="1" source="YW8mL61ox357DzGH6zIs-38" target="YW8mL61ox357DzGH6zIs-47" edge="1">
          <mxGeometry relative="1" as="geometry">
            <Array as="points">
              <mxPoint x="1508" y="790" />
              <mxPoint x="1508" y="550" />
            </Array>
          </mxGeometry>
        </mxCell>
        <mxCell id="YW8mL61ox357DzGH6zIs-38" value="Threat Report" style="strokeWidth=2;html=1;shape=mxgraph.flowchart.document2;whiteSpace=wrap;size=0.25;fillColor=#CCE5FF;" parent="1" vertex="1">
          <mxGeometry x="1385" y="775" width="100" height="60" as="geometry" />
        </mxCell>
        <mxCell id="YW8mL61ox357DzGH6zIs-43" style="edgeStyle=orthogonalEdgeStyle;rounded=0;orthogonalLoop=1;jettySize=auto;html=1;entryX=0;entryY=0.5;entryDx=0;entryDy=0;entryPerimeter=0;" parent="1" target="YW8mL61ox357DzGH6zIs-35" edge="1">
          <mxGeometry relative="1" as="geometry">
            <mxPoint x="1330" y="550" as="sourcePoint" />
            <mxPoint x="1380" y="560" as="targetPoint" />
            <Array as="points">
              <mxPoint x="1360" y="550" />
              <mxPoint x="1360" y="470" />
            </Array>
          </mxGeometry>
        </mxCell>
        <mxCell id="YW8mL61ox357DzGH6zIs-44" style="edgeStyle=orthogonalEdgeStyle;rounded=0;orthogonalLoop=1;jettySize=auto;html=1;entryX=0;entryY=0.25;entryDx=0;entryDy=0;entryPerimeter=0;exitX=1;exitY=0.5;exitDx=0;exitDy=0;exitPerimeter=0;" parent="1" source="YW8mL61ox357DzGH6zIs-32" target="YW8mL61ox357DzGH6zIs-36" edge="1">
          <mxGeometry relative="1" as="geometry">
            <mxPoint x="1350" y="570" as="sourcePoint" />
            <mxPoint x="1390" y="570" as="targetPoint" />
            <Array as="points">
              <mxPoint x="1360" y="550" />
              <mxPoint x="1360" y="630" />
            </Array>
          </mxGeometry>
        </mxCell>
        <mxCell id="YW8mL61ox357DzGH6zIs-186" style="edgeStyle=orthogonalEdgeStyle;rounded=0;orthogonalLoop=1;jettySize=auto;html=1;entryX=0;entryY=0.5;entryDx=0;entryDy=0;strokeColor=#3224FF;" parent="1" source="YW8mL61ox357DzGH6zIs-47" target="YW8mL61ox357DzGH6zIs-184" edge="1">
          <mxGeometry relative="1" as="geometry" />
        </mxCell>
        <mxCell id="YW8mL61ox357DzGH6zIs-47" value="Design Gate" style="strokeWidth=2;html=1;shape=mxgraph.flowchart.decision;whiteSpace=wrap;fillColor=#CCE5FF;" parent="1" vertex="1">
          <mxGeometry x="1528" y="500" width="100" height="100" as="geometry" />
        </mxCell>
        <mxCell id="YW8mL61ox357DzGH6zIs-53" value="Implementation" style="text;html=1;strokeColor=none;fillColor=none;align=center;verticalAlign=middle;whiteSpace=wrap;rounded=0;" parent="1" vertex="1">
          <mxGeometry x="2050" y="30" width="90" height="20" as="geometry" />
        </mxCell>
        <mxCell id="YW8mL61ox357DzGH6zIs-79" style="edgeStyle=orthogonalEdgeStyle;rounded=0;orthogonalLoop=1;jettySize=auto;html=1;entryX=0;entryY=0.5;entryDx=0;entryDy=0;entryPerimeter=0;" parent="1" source="YW8mL61ox357DzGH6zIs-55" target="YW8mL61ox357DzGH6zIs-64" edge="1">
          <mxGeometry relative="1" as="geometry" />
        </mxCell>
        <mxCell id="YW8mL61ox357DzGH6zIs-55" value="List of Tools Used" style="strokeWidth=2;html=1;shape=mxgraph.flowchart.document2;whiteSpace=wrap;size=0.25;fillColor=#CCFFCC;" parent="1" vertex="1">
          <mxGeometry x="1840" y="120" width="100" height="60" as="geometry" />
        </mxCell>
        <mxCell id="YW8mL61ox357DzGH6zIs-78" style="edgeStyle=orthogonalEdgeStyle;rounded=0;orthogonalLoop=1;jettySize=auto;html=1;entryX=0;entryY=0.5;entryDx=0;entryDy=0;entryPerimeter=0;" parent="1" source="YW8mL61ox357DzGH6zIs-56" target="YW8mL61ox357DzGH6zIs-64" edge="1">
          <mxGeometry relative="1" as="geometry" />
        </mxCell>
        <mxCell id="YW8mL61ox357DzGH6zIs-56" value="Build Process Documentation" style="strokeWidth=2;html=1;shape=mxgraph.flowchart.document2;whiteSpace=wrap;size=0.25;fillColor=#FFE6CC;" parent="1" vertex="1">
          <mxGeometry x="1840" y="200" width="100" height="60" as="geometry" />
        </mxCell>
        <mxCell id="YW8mL61ox357DzGH6zIs-77" style="edgeStyle=orthogonalEdgeStyle;rounded=0;orthogonalLoop=1;jettySize=auto;html=1;entryX=0;entryY=0.5;entryDx=0;entryDy=0;entryPerimeter=0;" parent="1" source="YW8mL61ox357DzGH6zIs-57" target="YW8mL61ox357DzGH6zIs-64" edge="1">
          <mxGeometry relative="1" as="geometry" />
        </mxCell>
        <mxCell id="YW8mL61ox357DzGH6zIs-57" value="Secure Settings Document" style="strokeWidth=2;html=1;shape=mxgraph.flowchart.document2;whiteSpace=wrap;size=0.25;fillColor=#CCE5FF;" parent="1" vertex="1">
          <mxGeometry x="1840" y="280" width="100" height="60" as="geometry" />
        </mxCell>
        <mxCell id="YW8mL61ox357DzGH6zIs-76" style="edgeStyle=orthogonalEdgeStyle;rounded=0;orthogonalLoop=1;jettySize=auto;html=1;entryX=0;entryY=0.5;entryDx=0;entryDy=0;entryPerimeter=0;" parent="1" source="YW8mL61ox357DzGH6zIs-58" target="YW8mL61ox357DzGH6zIs-64" edge="1">
          <mxGeometry relative="1" as="geometry" />
        </mxCell>
        <mxCell id="YW8mL61ox357DzGH6zIs-58" value="Secure Development" style="strokeWidth=2;html=1;shape=mxgraph.flowchart.document2;whiteSpace=wrap;size=0.25;fillColor=#CCFFCC;" parent="1" vertex="1">
          <mxGeometry x="1840" y="440" width="100" height="60" as="geometry" />
        </mxCell>
        <mxCell id="YW8mL61ox357DzGH6zIs-75" style="edgeStyle=orthogonalEdgeStyle;rounded=0;orthogonalLoop=1;jettySize=auto;html=1;entryX=0;entryY=0.5;entryDx=0;entryDy=0;entryPerimeter=0;" parent="1" source="YW8mL61ox357DzGH6zIs-59" target="YW8mL61ox357DzGH6zIs-64" edge="1">
          <mxGeometry relative="1" as="geometry" />
        </mxCell>
        <mxCell id="YW8mL61ox357DzGH6zIs-59" value="Currently Used Deprecated Functions" style="strokeWidth=2;html=1;shape=mxgraph.flowchart.document2;whiteSpace=wrap;size=0.25;fillColor=#CCFFCC;" parent="1" vertex="1">
          <mxGeometry x="1840" y="520" width="100" height="60" as="geometry" />
        </mxCell>
        <mxCell id="YW8mL61ox357DzGH6zIs-66" style="edgeStyle=orthogonalEdgeStyle;rounded=0;orthogonalLoop=1;jettySize=auto;html=1;entryX=0;entryY=0.5;entryDx=0;entryDy=0;entryPerimeter=0;" parent="1" source="YW8mL61ox357DzGH6zIs-60" target="YW8mL61ox357DzGH6zIs-64" edge="1">
          <mxGeometry relative="1" as="geometry" />
        </mxCell>
        <mxCell id="YW8mL61ox357DzGH6zIs-60" value="Component - Product Cross-reference" style="strokeWidth=2;html=1;shape=mxgraph.flowchart.document2;whiteSpace=wrap;size=0.25;fillColor=#CCFFCC;" parent="1" vertex="1">
          <mxGeometry x="1840" y="360" width="100" height="60" as="geometry" />
        </mxCell>
        <mxCell id="YW8mL61ox357DzGH6zIs-80" style="edgeStyle=orthogonalEdgeStyle;rounded=0;orthogonalLoop=1;jettySize=auto;html=1;entryX=0;entryY=0.5;entryDx=0;entryDy=0;entryPerimeter=0;" parent="1" source="YW8mL61ox357DzGH6zIs-61" target="YW8mL61ox357DzGH6zIs-64" edge="1">
          <mxGeometry relative="1" as="geometry" />
        </mxCell>
        <mxCell id="YW8mL61ox357DzGH6zIs-61" value="Static Analysis Report" style="strokeWidth=2;html=1;shape=mxgraph.flowchart.document2;whiteSpace=wrap;size=0.25;fillColor=#FFE6CC;" parent="1" vertex="1">
          <mxGeometry x="1840" y="593" width="100" height="60" as="geometry" />
        </mxCell>
        <mxCell id="YW8mL61ox357DzGH6zIs-81" style="edgeStyle=orthogonalEdgeStyle;rounded=0;orthogonalLoop=1;jettySize=auto;html=1;entryX=0;entryY=0.5;entryDx=0;entryDy=0;entryPerimeter=0;" parent="1" source="YW8mL61ox357DzGH6zIs-62" target="YW8mL61ox357DzGH6zIs-64" edge="1">
          <mxGeometry relative="1" as="geometry" />
        </mxCell>
        <mxCell id="YW8mL61ox357DzGH6zIs-62" value="Dynamic Analysis Report" style="strokeWidth=2;html=1;shape=mxgraph.flowchart.document2;whiteSpace=wrap;size=0.25;fillColor=#CCFFCC;" parent="1" vertex="1">
          <mxGeometry x="1840" y="673" width="100" height="60" as="geometry" />
        </mxCell>
        <mxCell id="YW8mL61ox357DzGH6zIs-82" style="edgeStyle=orthogonalEdgeStyle;rounded=0;orthogonalLoop=1;jettySize=auto;html=1;entryX=0;entryY=0.5;entryDx=0;entryDy=0;entryPerimeter=0;" parent="1" source="YW8mL61ox357DzGH6zIs-63" target="YW8mL61ox357DzGH6zIs-64" edge="1">
          <mxGeometry relative="1" as="geometry" />
        </mxCell>
        <mxCell id="YW8mL61ox357DzGH6zIs-63" value="Secure Code Review Summary" style="strokeWidth=2;html=1;shape=mxgraph.flowchart.document2;whiteSpace=wrap;size=0.25;fillColor=#CCE5FF;" parent="1" vertex="1">
          <mxGeometry x="1840" y="750" width="100" height="60" as="geometry" />
        </mxCell>
        <mxCell id="YW8mL61ox357DzGH6zIs-178" style="edgeStyle=orthogonalEdgeStyle;rounded=0;orthogonalLoop=1;jettySize=auto;html=1;entryX=0;entryY=0.5;entryDx=0;entryDy=0;strokeColor=#3224FF;" parent="1" source="YW8mL61ox357DzGH6zIs-64" target="YW8mL61ox357DzGH6zIs-176" edge="1">
          <mxGeometry relative="1" as="geometry" />
        </mxCell>
        <mxCell id="YW8mL61ox357DzGH6zIs-64" value="Implementation Gate" style="strokeWidth=2;html=1;shape=mxgraph.flowchart.decision;whiteSpace=wrap;fillColor=#CCE5FF;" parent="1" vertex="1">
          <mxGeometry x="2030" y="500" width="100" height="100" as="geometry" />
        </mxCell>
        <mxCell id="YW8mL61ox357DzGH6zIs-84" value="" style="rounded=1;whiteSpace=wrap;html=1;fillColor=none;arcSize=4;" parent="1" vertex="1">
          <mxGeometry x="2270" y="20" width="360" height="890" as="geometry" />
        </mxCell>
        <mxCell id="YW8mL61ox357DzGH6zIs-85" value="Verification" style="text;html=1;strokeColor=none;fillColor=none;align=center;verticalAlign=middle;whiteSpace=wrap;rounded=0;" parent="1" vertex="1">
          <mxGeometry x="2560" y="30" width="60" height="20" as="geometry" />
        </mxCell>
        <mxCell id="YW8mL61ox357DzGH6zIs-94" style="edgeStyle=orthogonalEdgeStyle;rounded=0;orthogonalLoop=1;jettySize=auto;html=1;entryX=0;entryY=0.5;entryDx=0;entryDy=0;entryPerimeter=0;" parent="1" source="YW8mL61ox357DzGH6zIs-86" target="YW8mL61ox357DzGH6zIs-90" edge="1">
          <mxGeometry relative="1" as="geometry" />
        </mxCell>
        <mxCell id="YW8mL61ox357DzGH6zIs-86" value="Updated Attack Surface Analysis" style="strokeWidth=2;html=1;shape=mxgraph.flowchart.document2;whiteSpace=wrap;size=0.25;fillColor=#CCE5FF;" parent="1" vertex="1">
          <mxGeometry x="2355" y="440" width="100" height="60" as="geometry" />
        </mxCell>
        <mxCell id="YW8mL61ox357DzGH6zIs-91" style="edgeStyle=orthogonalEdgeStyle;rounded=0;orthogonalLoop=1;jettySize=auto;html=1;entryX=0;entryY=0.5;entryDx=0;entryDy=0;entryPerimeter=0;" parent="1" source="YW8mL61ox357DzGH6zIs-87" target="YW8mL61ox357DzGH6zIs-64" edge="1">
          <mxGeometry relative="1" as="geometry" />
        </mxCell>
        <mxCell id="YW8mL61ox357DzGH6zIs-87" value="Fuzz Testing Report" style="strokeWidth=2;html=1;shape=mxgraph.flowchart.document2;whiteSpace=wrap;size=0.25;fillColor=#CCE5FF;" parent="1" vertex="1">
          <mxGeometry x="1840" y="830" width="100" height="60" as="geometry" />
        </mxCell>
        <mxCell id="YW8mL61ox357DzGH6zIs-92" style="edgeStyle=orthogonalEdgeStyle;rounded=0;orthogonalLoop=1;jettySize=auto;html=1;entryX=0;entryY=0.5;entryDx=0;entryDy=0;entryPerimeter=0;" parent="1" source="YW8mL61ox357DzGH6zIs-88" target="YW8mL61ox357DzGH6zIs-90" edge="1">
          <mxGeometry relative="1" as="geometry" />
        </mxCell>
        <mxCell id="YW8mL61ox357DzGH6zIs-88" value="Updated Threat Modeling Report" style="strokeWidth=2;html=1;shape=mxgraph.flowchart.document2;whiteSpace=wrap;size=0.25;fillColor=#CCE5FF;" parent="1" vertex="1">
          <mxGeometry x="2355" y="600" width="100" height="60" as="geometry" />
        </mxCell>
        <mxCell id="YW8mL61ox357DzGH6zIs-93" style="edgeStyle=orthogonalEdgeStyle;rounded=0;orthogonalLoop=1;jettySize=auto;html=1;entryX=0;entryY=0.5;entryDx=0;entryDy=0;entryPerimeter=0;" parent="1" source="YW8mL61ox357DzGH6zIs-89" target="YW8mL61ox357DzGH6zIs-90" edge="1">
          <mxGeometry relative="1" as="geometry" />
        </mxCell>
        <mxCell id="YW8mL61ox357DzGH6zIs-89" value="Penetration Testing Report" style="strokeWidth=2;html=1;shape=mxgraph.flowchart.document2;whiteSpace=wrap;size=0.25;fillColor=#CCE5FF;" parent="1" vertex="1">
          <mxGeometry x="2355" y="520" width="100" height="60" as="geometry" />
        </mxCell>
        <mxCell id="YW8mL61ox357DzGH6zIs-169" style="edgeStyle=orthogonalEdgeStyle;rounded=0;orthogonalLoop=1;jettySize=auto;html=1;entryX=0;entryY=0.5;entryDx=0;entryDy=0;strokeColor=#3224FF;" parent="1" source="YW8mL61ox357DzGH6zIs-90" target="YW8mL61ox357DzGH6zIs-164" edge="1">
          <mxGeometry relative="1" as="geometry" />
        </mxCell>
        <mxCell id="YW8mL61ox357DzGH6zIs-90" value="Verification Gate" style="strokeWidth=2;html=1;shape=mxgraph.flowchart.decision;whiteSpace=wrap;fillColor=#CCE5FF;" parent="1" vertex="1">
          <mxGeometry x="2495" y="500" width="100" height="100" as="geometry" />
        </mxCell>
        <mxCell id="YW8mL61ox357DzGH6zIs-102" value="Release" style="text;html=1;strokeColor=none;fillColor=none;align=center;verticalAlign=middle;whiteSpace=wrap;rounded=0;" parent="1" vertex="1">
          <mxGeometry x="3090" y="30" width="50" height="20" as="geometry" />
        </mxCell>
        <mxCell id="YW8mL61ox357DzGH6zIs-108" style="edgeStyle=orthogonalEdgeStyle;rounded=0;orthogonalLoop=1;jettySize=auto;html=1;entryX=0;entryY=0.5;entryDx=0;entryDy=0;entryPerimeter=0;" parent="1" source="YW8mL61ox357DzGH6zIs-104" target="YW8mL61ox357DzGH6zIs-105" edge="1">
          <mxGeometry relative="1" as="geometry" />
        </mxCell>
        <mxCell id="YW8mL61ox357DzGH6zIs-104" value="Final Security Review Report" style="strokeWidth=2;html=1;shape=mxgraph.flowchart.document2;whiteSpace=wrap;size=0.25;fillColor=#CCE5FF;" parent="1" vertex="1">
          <mxGeometry x="2770" y="520" width="100" height="60" as="geometry" />
        </mxCell>
        <mxCell id="YW8mL61ox357DzGH6zIs-109" style="edgeStyle=orthogonalEdgeStyle;rounded=0;orthogonalLoop=1;jettySize=auto;html=1;entryX=0;entryY=0.5;entryDx=0;entryDy=0;entryPerimeter=0;" parent="1" source="YW8mL61ox357DzGH6zIs-105" target="YW8mL61ox357DzGH6zIs-106" edge="1">
          <mxGeometry relative="1" as="geometry" />
        </mxCell>
        <mxCell id="YW8mL61ox357DzGH6zIs-105" value="Archive Manifest" style="strokeWidth=2;html=1;shape=mxgraph.flowchart.document2;whiteSpace=wrap;size=0.25;fillColor=#FFE6CC;" parent="1" vertex="1">
          <mxGeometry x="2910" y="520" width="100" height="60" as="geometry" />
        </mxCell>
        <mxCell id="YW8mL61ox357DzGH6zIs-175" style="edgeStyle=orthogonalEdgeStyle;rounded=0;orthogonalLoop=1;jettySize=auto;html=1;entryX=0;entryY=0.5;entryDx=0;entryDy=0;strokeColor=#3224FF;" parent="1" source="YW8mL61ox357DzGH6zIs-106" target="YW8mL61ox357DzGH6zIs-170" edge="1">
          <mxGeometry relative="1" as="geometry" />
        </mxCell>
        <mxCell id="YW8mL61ox357DzGH6zIs-106" value="Release Gate" style="strokeWidth=2;html=1;shape=mxgraph.flowchart.decision;whiteSpace=wrap;fillColor=#CCE5FF;" parent="1" vertex="1">
          <mxGeometry x="3050" y="500" width="100" height="100" as="geometry" />
        </mxCell>
        <mxCell id="YW8mL61ox357DzGH6zIs-110" value="Operation" style="text;html=1;strokeColor=none;fillColor=none;align=center;verticalAlign=middle;whiteSpace=wrap;rounded=0;" parent="1" vertex="1">
          <mxGeometry x="3420" y="30" width="60" height="20" as="geometry" />
        </mxCell>
        <mxCell id="YW8mL61ox357DzGH6zIs-112" value="Deployment Report" style="strokeWidth=2;html=1;shape=mxgraph.flowchart.document2;whiteSpace=wrap;size=0.25;fillColor=#FFE6CC;" parent="1" vertex="1">
          <mxGeometry x="3358" y="290" width="100" height="60" as="geometry" />
        </mxCell>
        <mxCell id="YW8mL61ox357DzGH6zIs-113" value="Cybersecurity Incident Report" style="strokeWidth=2;html=1;shape=mxgraph.flowchart.document2;whiteSpace=wrap;size=0.25;fillColor=#CCE5FF;" parent="1" vertex="1">
          <mxGeometry x="3358" y="680" width="100" height="60" as="geometry" />
        </mxCell>
        <mxCell id="YW8mL61ox357DzGH6zIs-118" value="Decommissioning" style="text;html=1;strokeColor=none;fillColor=none;align=center;verticalAlign=middle;whiteSpace=wrap;rounded=0;" parent="1" vertex="1">
          <mxGeometry x="3740" y="30" width="100" height="20" as="geometry" />
        </mxCell>
        <mxCell id="YW8mL61ox357DzGH6zIs-120" value="Decommissioning Report" style="strokeWidth=2;html=1;shape=mxgraph.flowchart.document2;whiteSpace=wrap;size=0.25;fillColor=#CCE5FF;" parent="1" vertex="1">
          <mxGeometry x="3690" y="440" width="100" height="60" as="geometry" />
        </mxCell>
        <mxCell id="YW8mL61ox357DzGH6zIs-123" value="devops" style="rounded=0;whiteSpace=wrap;html=1;fillColor=#FFE6CC;" parent="1" vertex="1">
          <mxGeometry x="190" y="930" width="90" height="30" as="geometry" />
        </mxCell>
        <mxCell id="YW8mL61ox357DzGH6zIs-124" value="development" style="rounded=0;whiteSpace=wrap;html=1;fillColor=#CCFFCC;" parent="1" vertex="1">
          <mxGeometry x="280" y="930" width="90" height="30" as="geometry" />
        </mxCell>
        <mxCell id="YW8mL61ox357DzGH6zIs-125" value="security" style="rounded=0;whiteSpace=wrap;html=1;fillColor=#CCE5FF;" parent="1" vertex="1">
          <mxGeometry x="370" y="930" width="90" height="30" as="geometry" />
        </mxCell>
        <mxCell id="YW8mL61ox357DzGH6zIs-126" value="1" style="verticalLabelPosition=bottom;verticalAlign=top;html=1;shape=offPageConnector;rounded=0;size=0.3333333333333333;fillColor=#FFE6CC;" parent="1" vertex="1">
          <mxGeometry x="610" y="295" width="30" height="30" as="geometry" />
        </mxCell>
        <mxCell id="YW8mL61ox357DzGH6zIs-131" style="edgeStyle=orthogonalEdgeStyle;rounded=0;orthogonalLoop=1;jettySize=auto;html=1;entryX=0;entryY=0.25;entryDx=0;entryDy=0;entryPerimeter=0;" parent="1" source="YW8mL61ox357DzGH6zIs-129" target="YW8mL61ox357DzGH6zIs-112" edge="1">
          <mxGeometry relative="1" as="geometry">
            <Array as="points">
              <mxPoint x="3310" y="305" />
              <mxPoint x="3310" y="305" />
            </Array>
          </mxGeometry>
        </mxCell>
        <mxCell id="YW8mL61ox357DzGH6zIs-129" value="1" style="verticalLabelPosition=bottom;verticalAlign=top;html=1;shape=offPageConnector;rounded=0;size=0.3333333333333333;fillColor=#FFE6CC;" parent="1" vertex="1">
          <mxGeometry x="3215" y="295" width="30" height="30" as="geometry" />
        </mxCell>
        <mxCell id="YW8mL61ox357DzGH6zIs-132" value="2" style="verticalLabelPosition=bottom;verticalAlign=top;html=1;shape=offPageConnector;rounded=0;size=0.3333333333333333;fillColor=#CCFFCC;" parent="1" vertex="1">
          <mxGeometry x="610" y="120" width="30" height="30" as="geometry" />
        </mxCell>
        <mxCell id="YW8mL61ox357DzGH6zIs-133" value="3" style="verticalLabelPosition=bottom;verticalAlign=top;html=1;shape=offPageConnector;rounded=0;size=0.3333333333333333;fillColor=#CCE5FF;" parent="1" vertex="1">
          <mxGeometry x="610" y="695" width="30" height="30" as="geometry" />
        </mxCell>
        <mxCell id="YW8mL61ox357DzGH6zIs-136" style="edgeStyle=orthogonalEdgeStyle;rounded=0;orthogonalLoop=1;jettySize=auto;html=1;entryX=0;entryY=0.25;entryDx=0;entryDy=0;entryPerimeter=0;" parent="1" source="YW8mL61ox357DzGH6zIs-135" target="YW8mL61ox357DzGH6zIs-55" edge="1">
          <mxGeometry relative="1" as="geometry" />
        </mxCell>
        <mxCell id="YW8mL61ox357DzGH6zIs-135" value="2" style="verticalLabelPosition=bottom;verticalAlign=top;html=1;shape=offPageConnector;rounded=0;size=0.3333333333333333;fillColor=#FFE6CC;" parent="1" vertex="1">
          <mxGeometry x="1695" y="120" width="30" height="30" as="geometry" />
        </mxCell>
        <mxCell id="YW8mL61ox357DzGH6zIs-139" style="edgeStyle=orthogonalEdgeStyle;rounded=0;orthogonalLoop=1;jettySize=auto;html=1;entryX=0;entryY=0.5;entryDx=0;entryDy=0;entryPerimeter=0;" parent="1" source="YW8mL61ox357DzGH6zIs-138" target="YW8mL61ox357DzGH6zIs-113" edge="1">
          <mxGeometry relative="1" as="geometry" />
        </mxCell>
        <mxCell id="YW8mL61ox357DzGH6zIs-138" value="3" style="verticalLabelPosition=bottom;verticalAlign=top;html=1;shape=offPageConnector;rounded=0;size=0.3333333333333333;fillColor=#CCE5FF;" parent="1" vertex="1">
          <mxGeometry x="3215" y="695" width="30" height="30" as="geometry" />
        </mxCell>
        <mxCell id="YW8mL61ox357DzGH6zIs-140" value="5" style="verticalLabelPosition=bottom;verticalAlign=top;html=1;shape=offPageConnector;rounded=0;size=0.3333333333333333;fillColor=#CCE5FF;" parent="1" vertex="1">
          <mxGeometry x="610" y="775" width="30" height="30" as="geometry" />
        </mxCell>
        <mxCell id="YW8mL61ox357DzGH6zIs-143" style="edgeStyle=orthogonalEdgeStyle;rounded=0;orthogonalLoop=1;jettySize=auto;html=1;entryX=0;entryY=0.75;entryDx=0;entryDy=0;entryPerimeter=0;" parent="1" source="YW8mL61ox357DzGH6zIs-142" target="YW8mL61ox357DzGH6zIs-113" edge="1">
          <mxGeometry relative="1" as="geometry">
            <Array as="points">
              <mxPoint x="3310" y="780" />
              <mxPoint x="3310" y="725" />
            </Array>
          </mxGeometry>
        </mxCell>
        <mxCell id="YW8mL61ox357DzGH6zIs-142" value="5" style="verticalLabelPosition=bottom;verticalAlign=top;html=1;shape=offPageConnector;rounded=0;size=0.3333333333333333;fillColor=#CCE5FF;" parent="1" vertex="1">
          <mxGeometry x="3215" y="770" width="30" height="30" as="geometry" />
        </mxCell>
        <mxCell id="YW8mL61ox357DzGH6zIs-144" value="6" style="verticalLabelPosition=bottom;verticalAlign=top;html=1;shape=offPageConnector;rounded=0;size=0.3333333333333333;fillColor=#CCE5FF;" parent="1" vertex="1">
          <mxGeometry x="610" y="455" width="30" height="30" as="geometry" />
        </mxCell>
        <mxCell id="YW8mL61ox357DzGH6zIs-147" style="edgeStyle=orthogonalEdgeStyle;rounded=0;orthogonalLoop=1;jettySize=auto;html=1;entryX=0;entryY=0.5;entryDx=0;entryDy=0;entryPerimeter=0;" parent="1" source="YW8mL61ox357DzGH6zIs-145" target="YW8mL61ox357DzGH6zIs-120" edge="1">
          <mxGeometry relative="1" as="geometry" />
        </mxCell>
        <mxCell id="YW8mL61ox357DzGH6zIs-145" value="6" style="verticalLabelPosition=bottom;verticalAlign=top;html=1;shape=offPageConnector;rounded=0;size=0.3333333333333333;fillColor=#CCE5FF;" parent="1" vertex="1">
          <mxGeometry x="3580" y="455" width="30" height="30" as="geometry" />
        </mxCell>
        <mxCell id="YW8mL61ox357DzGH6zIs-148" value="4" style="verticalLabelPosition=bottom;verticalAlign=top;html=1;shape=offPageConnector;rounded=0;size=0.3333333333333333;fillColor=#CCE5FF;" parent="1" vertex="1">
          <mxGeometry x="610" y="615" width="30" height="30" as="geometry" />
        </mxCell>
        <mxCell id="YW8mL61ox357DzGH6zIs-151" style="edgeStyle=orthogonalEdgeStyle;rounded=0;orthogonalLoop=1;jettySize=auto;html=1;entryX=0;entryY=0.5;entryDx=0;entryDy=0;entryPerimeter=0;" parent="1" source="YW8mL61ox357DzGH6zIs-149" target="YW8mL61ox357DzGH6zIs-36" edge="1">
          <mxGeometry relative="1" as="geometry" />
        </mxCell>
        <mxCell id="YW8mL61ox357DzGH6zIs-149" value="4" style="verticalLabelPosition=bottom;verticalAlign=top;html=1;shape=offPageConnector;rounded=0;size=0.3333333333333333;fillColor=#CCE5FF;" parent="1" vertex="1">
          <mxGeometry x="1135" y="630" width="30" height="30" as="geometry" />
        </mxCell>
        <mxCell id="YW8mL61ox357DzGH6zIs-154" value="7" style="verticalLabelPosition=bottom;verticalAlign=top;html=1;shape=offPageConnector;rounded=0;size=0.3333333333333333;fillColor=#CCE5FF;" parent="1" vertex="1">
          <mxGeometry x="1665" y="440" width="30" height="30" as="geometry" />
        </mxCell>
        <mxCell id="YW8mL61ox357DzGH6zIs-155" value="8" style="verticalLabelPosition=bottom;verticalAlign=top;html=1;shape=offPageConnector;rounded=0;size=0.3333333333333333;fillColor=#CCE5FF;" parent="1" vertex="1">
          <mxGeometry x="1665" y="615" width="30" height="30" as="geometry" />
        </mxCell>
        <mxCell id="YW8mL61ox357DzGH6zIs-163" style="edgeStyle=orthogonalEdgeStyle;rounded=0;orthogonalLoop=1;jettySize=auto;html=1;entryX=0;entryY=0.25;entryDx=0;entryDy=0;entryPerimeter=0;" parent="1" source="YW8mL61ox357DzGH6zIs-157" target="YW8mL61ox357DzGH6zIs-86" edge="1">
          <mxGeometry relative="1" as="geometry" />
        </mxCell>
        <mxCell id="YW8mL61ox357DzGH6zIs-157" value="7" style="verticalLabelPosition=bottom;verticalAlign=top;html=1;shape=offPageConnector;rounded=0;size=0.3333333333333333;fillColor=#CCE5FF;" parent="1" vertex="1">
          <mxGeometry x="2215" y="440" width="30" height="30" as="geometry" />
        </mxCell>
        <mxCell id="YW8mL61ox357DzGH6zIs-160" style="edgeStyle=orthogonalEdgeStyle;rounded=0;orthogonalLoop=1;jettySize=auto;html=1;entryX=0;entryY=0.5;entryDx=0;entryDy=0;entryPerimeter=0;" parent="1" source="YW8mL61ox357DzGH6zIs-158" target="YW8mL61ox357DzGH6zIs-88" edge="1">
          <mxGeometry relative="1" as="geometry" />
        </mxCell>
        <mxCell id="YW8mL61ox357DzGH6zIs-158" value="8" style="verticalLabelPosition=bottom;verticalAlign=top;html=1;shape=offPageConnector;rounded=0;size=0.3333333333333333;fillColor=#CCE5FF;" parent="1" vertex="1">
          <mxGeometry x="2215" y="615" width="30" height="30" as="geometry" />
        </mxCell>
        <mxCell id="YW8mL61ox357DzGH6zIs-164" value="VR" style="verticalLabelPosition=bottom;verticalAlign=top;html=1;shape=offPageConnector;rounded=0;size=0.3333333333333333;fillColor=#CCE5FF;" parent="1" vertex="1">
          <mxGeometry x="2650" y="535" width="30" height="30" as="geometry" />
        </mxCell>
        <mxCell id="YW8mL61ox357DzGH6zIs-168" style="edgeStyle=orthogonalEdgeStyle;rounded=0;orthogonalLoop=1;jettySize=auto;html=1;entryX=0;entryY=0.5;entryDx=0;entryDy=0;entryPerimeter=0;" parent="1" source="YW8mL61ox357DzGH6zIs-167" target="YW8mL61ox357DzGH6zIs-104" edge="1">
          <mxGeometry relative="1" as="geometry" />
        </mxCell>
        <mxCell id="YW8mL61ox357DzGH6zIs-167" value="VR" style="verticalLabelPosition=bottom;verticalAlign=top;html=1;shape=offPageConnector;rounded=0;size=0.3333333333333333;fillColor=#CCE5FF;" parent="1" vertex="1">
          <mxGeometry x="2680" y="535" width="30" height="30" as="geometry" />
        </mxCell>
        <mxCell id="YW8mL61ox357DzGH6zIs-170" value="RO" style="verticalLabelPosition=bottom;verticalAlign=top;html=1;shape=offPageConnector;rounded=0;size=0.3333333333333333;fillColor=#CCE5FF;" parent="1" vertex="1">
          <mxGeometry x="3185" y="535" width="30" height="30" as="geometry" />
        </mxCell>
        <mxCell id="YW8mL61ox357DzGH6zIs-173" style="edgeStyle=orthogonalEdgeStyle;rounded=0;orthogonalLoop=1;jettySize=auto;html=1;entryX=0;entryY=0.5;entryDx=0;entryDy=0;entryPerimeter=0;" parent="1" source="YW8mL61ox357DzGH6zIs-171" target="YW8mL61ox357DzGH6zIs-112" edge="1">
          <mxGeometry relative="1" as="geometry">
            <Array as="points">
              <mxPoint x="3310" y="550" />
              <mxPoint x="3310" y="320" />
            </Array>
          </mxGeometry>
        </mxCell>
        <mxCell id="YW8mL61ox357DzGH6zIs-174" style="edgeStyle=orthogonalEdgeStyle;rounded=0;orthogonalLoop=1;jettySize=auto;html=1;entryX=0;entryY=0.25;entryDx=0;entryDy=0;entryPerimeter=0;" parent="1" source="YW8mL61ox357DzGH6zIs-171" target="YW8mL61ox357DzGH6zIs-113" edge="1">
          <mxGeometry relative="1" as="geometry">
            <Array as="points">
              <mxPoint x="3310" y="550" />
              <mxPoint x="3310" y="695" />
            </Array>
          </mxGeometry>
        </mxCell>
        <mxCell id="YW8mL61ox357DzGH6zIs-171" value="RO" style="verticalLabelPosition=bottom;verticalAlign=top;html=1;shape=offPageConnector;rounded=0;size=0.3333333333333333;fillColor=#CCE5FF;" parent="1" vertex="1">
          <mxGeometry x="3215" y="535" width="30" height="30" as="geometry" />
        </mxCell>
        <mxCell id="YW8mL61ox357DzGH6zIs-176" value="IV" style="verticalLabelPosition=bottom;verticalAlign=top;html=1;shape=offPageConnector;rounded=0;size=0.3333333333333333;fillColor=#CCE5FF;" parent="1" vertex="1">
          <mxGeometry x="2185" y="535" width="30" height="30" as="geometry" />
        </mxCell>
        <mxCell id="YW8mL61ox357DzGH6zIs-179" style="edgeStyle=orthogonalEdgeStyle;rounded=0;orthogonalLoop=1;jettySize=auto;html=1;entryX=0;entryY=0.5;entryDx=0;entryDy=0;entryPerimeter=0;" parent="1" source="YW8mL61ox357DzGH6zIs-177" target="YW8mL61ox357DzGH6zIs-86" edge="1">
          <mxGeometry relative="1" as="geometry" />
        </mxCell>
        <mxCell id="YW8mL61ox357DzGH6zIs-180" style="edgeStyle=orthogonalEdgeStyle;rounded=0;orthogonalLoop=1;jettySize=auto;html=1;entryX=0;entryY=0.5;entryDx=0;entryDy=0;entryPerimeter=0;exitX=1;exitY=0.5;exitDx=0;exitDy=0;" parent="1" source="YW8mL61ox357DzGH6zIs-185" target="YW8mL61ox357DzGH6zIs-87" edge="1">
          <mxGeometry relative="1" as="geometry">
            <Array as="points">
              <mxPoint x="1800" y="550" />
              <mxPoint x="1800" y="860" />
            </Array>
          </mxGeometry>
        </mxCell>
        <mxCell id="YW8mL61ox357DzGH6zIs-181" style="edgeStyle=orthogonalEdgeStyle;rounded=0;orthogonalLoop=1;jettySize=auto;html=1;entryX=0;entryY=0.25;entryDx=0;entryDy=0;entryPerimeter=0;" parent="1" source="YW8mL61ox357DzGH6zIs-177" target="YW8mL61ox357DzGH6zIs-88" edge="1">
          <mxGeometry relative="1" as="geometry" />
        </mxCell>
        <mxCell id="YW8mL61ox357DzGH6zIs-183" style="edgeStyle=orthogonalEdgeStyle;rounded=0;orthogonalLoop=1;jettySize=auto;html=1;entryX=0;entryY=0.5;entryDx=0;entryDy=0;entryPerimeter=0;" parent="1" source="YW8mL61ox357DzGH6zIs-177" target="YW8mL61ox357DzGH6zIs-89" edge="1">
          <mxGeometry relative="1" as="geometry" />
        </mxCell>
        <mxCell id="YW8mL61ox357DzGH6zIs-177" value="IV" style="verticalLabelPosition=bottom;verticalAlign=top;html=1;shape=offPageConnector;rounded=0;size=0.3333333333333333;fillColor=#CCE5FF;" parent="1" vertex="1">
          <mxGeometry x="2215" y="535" width="30" height="30" as="geometry" />
        </mxCell>
        <mxCell id="YW8mL61ox357DzGH6zIs-184" value="DI" style="verticalLabelPosition=bottom;verticalAlign=top;html=1;shape=offPageConnector;rounded=0;size=0.3333333333333333;fillColor=#CCFFCC;" parent="1" vertex="1">
          <mxGeometry x="1665" y="535" width="30" height="30" as="geometry" />
        </mxCell>
        <mxCell id="YW8mL61ox357DzGH6zIs-187" style="edgeStyle=orthogonalEdgeStyle;rounded=0;orthogonalLoop=1;jettySize=auto;html=1;entryX=0;entryY=0.5;entryDx=0;entryDy=0;entryPerimeter=0;" parent="1" source="YW8mL61ox357DzGH6zIs-185" target="YW8mL61ox357DzGH6zIs-60" edge="1">
          <mxGeometry relative="1" as="geometry">
            <Array as="points">
              <mxPoint x="1800" y="550" />
              <mxPoint x="1800" y="390" />
            </Array>
          </mxGeometry>
        </mxCell>
        <mxCell id="YW8mL61ox357DzGH6zIs-188" style="edgeStyle=orthogonalEdgeStyle;rounded=0;orthogonalLoop=1;jettySize=auto;html=1;entryX=0;entryY=0.5;entryDx=0;entryDy=0;entryPerimeter=0;" parent="1" source="YW8mL61ox357DzGH6zIs-185" target="YW8mL61ox357DzGH6zIs-61" edge="1">
          <mxGeometry relative="1" as="geometry">
            <Array as="points">
              <mxPoint x="1800" y="550" />
              <mxPoint x="1800" y="623" />
            </Array>
          </mxGeometry>
        </mxCell>
        <mxCell id="YW8mL61ox357DzGH6zIs-189" style="edgeStyle=orthogonalEdgeStyle;rounded=0;orthogonalLoop=1;jettySize=auto;html=1;entryX=0;entryY=0.5;entryDx=0;entryDy=0;entryPerimeter=0;" parent="1" source="YW8mL61ox357DzGH6zIs-185" target="YW8mL61ox357DzGH6zIs-62" edge="1">
          <mxGeometry relative="1" as="geometry">
            <Array as="points">
              <mxPoint x="1800" y="550" />
              <mxPoint x="1800" y="703" />
            </Array>
          </mxGeometry>
        </mxCell>
        <mxCell id="YW8mL61ox357DzGH6zIs-190" style="edgeStyle=orthogonalEdgeStyle;rounded=0;orthogonalLoop=1;jettySize=auto;html=1;entryX=0;entryY=0.5;entryDx=0;entryDy=0;entryPerimeter=0;" parent="1" source="YW8mL61ox357DzGH6zIs-185" target="YW8mL61ox357DzGH6zIs-63" edge="1">
          <mxGeometry relative="1" as="geometry">
            <Array as="points">
              <mxPoint x="1800" y="550" />
              <mxPoint x="1800" y="780" />
            </Array>
          </mxGeometry>
        </mxCell>
        <mxCell id="YW8mL61ox357DzGH6zIs-191" style="edgeStyle=orthogonalEdgeStyle;rounded=0;orthogonalLoop=1;jettySize=auto;html=1;entryX=0;entryY=0.5;entryDx=0;entryDy=0;entryPerimeter=0;" parent="1" source="YW8mL61ox357DzGH6zIs-185" target="YW8mL61ox357DzGH6zIs-59" edge="1">
          <mxGeometry relative="1" as="geometry">
            <Array as="points">
              <mxPoint x="1800" y="550" />
              <mxPoint x="1800" y="550" />
            </Array>
          </mxGeometry>
        </mxCell>
        <mxCell id="YW8mL61ox357DzGH6zIs-192" style="edgeStyle=orthogonalEdgeStyle;rounded=0;orthogonalLoop=1;jettySize=auto;html=1;entryX=0;entryY=0.5;entryDx=0;entryDy=0;entryPerimeter=0;" parent="1" source="YW8mL61ox357DzGH6zIs-185" target="YW8mL61ox357DzGH6zIs-58" edge="1">
          <mxGeometry relative="1" as="geometry">
            <Array as="points">
              <mxPoint x="1800" y="550" />
              <mxPoint x="1800" y="470" />
            </Array>
          </mxGeometry>
        </mxCell>
        <mxCell id="YW8mL61ox357DzGH6zIs-193" style="edgeStyle=orthogonalEdgeStyle;rounded=0;orthogonalLoop=1;jettySize=auto;html=1;entryX=0;entryY=0.5;entryDx=0;entryDy=0;entryPerimeter=0;" parent="1" source="YW8mL61ox357DzGH6zIs-185" target="YW8mL61ox357DzGH6zIs-57" edge="1">
          <mxGeometry relative="1" as="geometry">
            <Array as="points">
              <mxPoint x="1800" y="550" />
              <mxPoint x="1800" y="310" />
            </Array>
          </mxGeometry>
        </mxCell>
        <mxCell id="YW8mL61ox357DzGH6zIs-194" style="edgeStyle=orthogonalEdgeStyle;rounded=0;orthogonalLoop=1;jettySize=auto;html=1;entryX=0;entryY=0.5;entryDx=0;entryDy=0;entryPerimeter=0;" parent="1" source="YW8mL61ox357DzGH6zIs-185" target="YW8mL61ox357DzGH6zIs-56" edge="1">
          <mxGeometry relative="1" as="geometry">
            <Array as="points">
              <mxPoint x="1800" y="550" />
              <mxPoint x="1800" y="230" />
            </Array>
          </mxGeometry>
        </mxCell>
        <mxCell id="YW8mL61ox357DzGH6zIs-195" style="edgeStyle=orthogonalEdgeStyle;rounded=0;orthogonalLoop=1;jettySize=auto;html=1;entryX=0;entryY=0.5;entryDx=0;entryDy=0;entryPerimeter=0;" parent="1" source="YW8mL61ox357DzGH6zIs-185" target="YW8mL61ox357DzGH6zIs-55" edge="1">
          <mxGeometry relative="1" as="geometry">
            <Array as="points">
              <mxPoint x="1800" y="550" />
              <mxPoint x="1800" y="150" />
            </Array>
          </mxGeometry>
        </mxCell>
        <mxCell id="YW8mL61ox357DzGH6zIs-185" value="DI" style="verticalLabelPosition=bottom;verticalAlign=top;html=1;shape=offPageConnector;rounded=0;size=0.3333333333333333;fillColor=#CCE5FF;" parent="1" vertex="1">
          <mxGeometry x="1695" y="535" width="30" height="30" as="geometry" />
        </mxCell>
        <mxCell id="YW8mL61ox357DzGH6zIs-196" value="RD" style="verticalLabelPosition=bottom;verticalAlign=top;html=1;shape=offPageConnector;rounded=0;size=0.3333333333333333;fillColor=#CCFFCC;" parent="1" vertex="1">
          <mxGeometry x="1105" y="535" width="30" height="30" as="geometry" />
        </mxCell>
        <mxCell id="YW8mL61ox357DzGH6zIs-199" style="edgeStyle=orthogonalEdgeStyle;rounded=0;orthogonalLoop=1;jettySize=auto;html=1;entryX=0;entryY=0.5;entryDx=0;entryDy=0;entryPerimeter=0;" parent="1" source="YW8mL61ox357DzGH6zIs-197" target="YW8mL61ox357DzGH6zIs-32" edge="1">
          <mxGeometry relative="1" as="geometry" />
        </mxCell>
        <mxCell id="YW8mL61ox357DzGH6zIs-197" value="RD" style="verticalLabelPosition=bottom;verticalAlign=top;html=1;shape=offPageConnector;rounded=0;size=0.3333333333333333;fillColor=#CCE5FF;" parent="1" vertex="1">
          <mxGeometry x="1135" y="535" width="30" height="30" as="geometry" />
        </mxCell>
        <mxCell id="YW8mL61ox357DzGH6zIs-200" value="9" style="verticalLabelPosition=bottom;verticalAlign=top;html=1;shape=offPageConnector;rounded=0;size=0.3333333333333333;fillColor=#CCE5FF;" parent="1" vertex="1">
          <mxGeometry x="610" y="535" width="30" height="30" as="geometry" />
        </mxCell>
        <mxCell id="YW8mL61ox357DzGH6zIs-202" style="edgeStyle=orthogonalEdgeStyle;rounded=0;orthogonalLoop=1;jettySize=auto;html=1;entryX=0;entryY=0.5;entryDx=0;entryDy=0;entryPerimeter=0;exitX=1;exitY=0.5;exitDx=0;exitDy=0;" parent="1" source="YW8mL61ox357DzGH6zIs-200" target="YW8mL61ox357DzGH6zIs-22" edge="1">
          <mxGeometry relative="1" as="geometry">
            <mxPoint x="655" y="550" as="sourcePoint" />
          </mxGeometry>
        </mxCell>
        <mxCell id="PF2a_6IoUEOjOje82GA7-4" value="&lt;font color=&quot;#3224ff&quot;&gt;1&lt;/font&gt;" style="text;html=1;strokeColor=none;fillColor=none;align=center;verticalAlign=middle;whiteSpace=wrap;rounded=0;" parent="1" vertex="1">
          <mxGeometry x="3430" y="680" width="40" height="20" as="geometry" />
        </mxCell>
        <mxCell id="PF2a_6IoUEOjOje82GA7-5" value="&lt;font color=&quot;#3224ff&quot;&gt;2&lt;/font&gt;" style="text;html=1;strokeColor=none;fillColor=none;align=center;verticalAlign=middle;whiteSpace=wrap;rounded=0;" parent="1" vertex="1">
          <mxGeometry x="3430" y="290" width="40" height="20" as="geometry" />
        </mxCell>
        <mxCell id="PF2a_6IoUEOjOje82GA7-15" value="&lt;font color=&quot;#3224ff&quot;&gt;1&lt;/font&gt;" style="text;html=1;strokeColor=none;fillColor=none;align=center;verticalAlign=middle;whiteSpace=wrap;rounded=0;" parent="1" vertex="1">
          <mxGeometry x="270" y="360" width="40" height="20" as="geometry" />
        </mxCell>
        <mxCell id="PF2a_6IoUEOjOje82GA7-16" value="&lt;font color=&quot;#3224ff&quot;&gt;1&lt;/font&gt;" style="text;html=1;strokeColor=none;fillColor=none;align=center;verticalAlign=middle;whiteSpace=wrap;rounded=0;" parent="1" vertex="1">
          <mxGeometry x="360" y="350" width="40" height="20" as="geometry" />
        </mxCell>
        <mxCell id="PF2a_6IoUEOjOje82GA7-18" value="&lt;font color=&quot;#3224ff&quot;&gt;3&lt;/font&gt;" style="text;html=1;strokeColor=none;fillColor=none;align=center;verticalAlign=middle;whiteSpace=wrap;rounded=0;" parent="1" vertex="1">
          <mxGeometry x="270" y="120" width="40" height="20" as="geometry" />
        </mxCell>
        <mxCell id="PF2a_6IoUEOjOje82GA7-19" value="&lt;font color=&quot;#3224ff&quot;&gt;4&lt;/font&gt;" style="text;html=1;strokeColor=none;fillColor=none;align=center;verticalAlign=middle;whiteSpace=wrap;rounded=0;" parent="1" vertex="1">
          <mxGeometry x="485" y="510" width="40" height="20" as="geometry" />
        </mxCell>
        <mxCell id="PF2a_6IoUEOjOje82GA7-20" value="&lt;font color=&quot;#3224ff&quot;&gt;4&lt;/font&gt;" style="text;html=1;strokeColor=none;fillColor=none;align=center;verticalAlign=middle;whiteSpace=wrap;rounded=0;" parent="1" vertex="1">
          <mxGeometry x="395" y="520" width="40" height="20" as="geometry" />
        </mxCell>
        <mxCell id="PF2a_6IoUEOjOje82GA7-21" value="&lt;font color=&quot;#3224ff&quot;&gt;4&lt;/font&gt;" style="text;html=1;strokeColor=none;fillColor=none;align=center;verticalAlign=middle;whiteSpace=wrap;rounded=0;" parent="1" vertex="1">
          <mxGeometry x="270" y="520" width="40" height="20" as="geometry" />
        </mxCell>
        <mxCell id="PF2a_6IoUEOjOje82GA7-22" value="&lt;font color=&quot;#3224ff&quot;&gt;5&lt;/font&gt;" style="text;html=1;strokeColor=none;fillColor=none;align=center;verticalAlign=middle;whiteSpace=wrap;rounded=0;" parent="1" vertex="1">
          <mxGeometry x="270" y="40" width="40" height="20" as="geometry" />
        </mxCell>
        <mxCell id="PF2a_6IoUEOjOje82GA7-23" value="&lt;font color=&quot;#3224ff&quot;&gt;6&lt;/font&gt;" style="text;html=1;strokeColor=none;fillColor=none;align=center;verticalAlign=middle;whiteSpace=wrap;rounded=0;" parent="1" vertex="1">
          <mxGeometry x="270" y="200" width="40" height="20" as="geometry" />
        </mxCell>
        <mxCell id="PF2a_6IoUEOjOje82GA7-24" value="&lt;font color=&quot;#3224ff&quot;&gt;7&lt;/font&gt;" style="text;html=1;strokeColor=none;fillColor=none;align=center;verticalAlign=middle;whiteSpace=wrap;rounded=0;" parent="1" vertex="1">
          <mxGeometry x="270" y="680" width="40" height="20" as="geometry" />
        </mxCell>
        <mxCell id="PF2a_6IoUEOjOje82GA7-25" value="&lt;font color=&quot;#3224ff&quot;&gt;8&lt;/font&gt;" style="text;html=1;strokeColor=none;fillColor=none;align=center;verticalAlign=middle;whiteSpace=wrap;rounded=0;" parent="1" vertex="1">
          <mxGeometry x="270" y="440" width="40" height="20" as="geometry" />
        </mxCell>
        <mxCell id="PF2a_6IoUEOjOje82GA7-26" value="&lt;font color=&quot;#3224ff&quot;&gt;9&lt;/font&gt;" style="text;html=1;strokeColor=none;fillColor=none;align=center;verticalAlign=middle;whiteSpace=wrap;rounded=0;" parent="1" vertex="1">
          <mxGeometry x="270" y="600" width="40" height="20" as="geometry" />
        </mxCell>
        <mxCell id="PF2a_6IoUEOjOje82GA7-27" value="&lt;font color=&quot;#3224ff&quot;&gt;7&lt;/font&gt;" style="text;html=1;strokeColor=none;fillColor=none;align=center;verticalAlign=middle;whiteSpace=wrap;rounded=0;" parent="1" vertex="1">
          <mxGeometry x="270" y="760" width="40" height="20" as="geometry" />
        </mxCell>
        <mxCell id="PF2a_6IoUEOjOje82GA7-28" value="&lt;font color=&quot;#3224ff&quot;&gt;10&lt;/font&gt;" style="text;html=1;strokeColor=none;fillColor=none;align=center;verticalAlign=middle;whiteSpace=wrap;rounded=0;" parent="1" vertex="1">
          <mxGeometry x="270" y="280" width="40" height="20" as="geometry" />
        </mxCell>
        <mxCell id="PF2a_6IoUEOjOje82GA7-29" value="&lt;font color=&quot;#3224ff&quot;&gt;1&lt;/font&gt;" style="text;html=1;strokeColor=none;fillColor=none;align=center;verticalAlign=middle;whiteSpace=wrap;rounded=0;" parent="1" vertex="1">
          <mxGeometry x="900" y="520" width="40" height="20" as="geometry" />
        </mxCell>
        <mxCell id="PF2a_6IoUEOjOje82GA7-30" value="&lt;font color=&quot;#3224ff&quot;&gt;1&lt;/font&gt;" style="text;html=1;strokeColor=none;fillColor=none;align=center;verticalAlign=middle;whiteSpace=wrap;rounded=0;" parent="1" vertex="1">
          <mxGeometry x="770" y="520" width="40" height="20" as="geometry" />
        </mxCell>
        <mxCell id="PF2a_6IoUEOjOje82GA7-31" value="&lt;font color=&quot;#3224ff&quot;&gt;2&lt;/font&gt;" style="text;html=1;strokeColor=none;fillColor=none;align=center;verticalAlign=middle;whiteSpace=wrap;rounded=0;" parent="1" vertex="1">
          <mxGeometry x="980" y="510" width="40" height="20" as="geometry" />
        </mxCell>
        <mxCell id="PF2a_6IoUEOjOje82GA7-34" value="&lt;font color=&quot;#3224ff&quot;&gt;1&lt;/font&gt;" style="text;html=1;strokeColor=none;fillColor=none;align=center;verticalAlign=middle;whiteSpace=wrap;rounded=0;" parent="1" vertex="1">
          <mxGeometry x="3760" y="440" width="40" height="20" as="geometry" />
        </mxCell>
        <mxCell id="PF2a_6IoUEOjOje82GA7-35" value="&lt;font color=&quot;#3224ff&quot;&gt;1&lt;/font&gt;" style="text;html=1;strokeColor=none;fillColor=none;align=center;verticalAlign=middle;whiteSpace=wrap;rounded=0;" parent="1" vertex="1">
          <mxGeometry x="1300" y="520" width="40" height="20" as="geometry" />
        </mxCell>
        <mxCell id="PF2a_6IoUEOjOje82GA7-36" value="&lt;font color=&quot;#3224ff&quot;&gt;2&lt;/font&gt;" style="text;html=1;strokeColor=none;fillColor=none;align=center;verticalAlign=middle;whiteSpace=wrap;rounded=0;" parent="1" vertex="1">
          <mxGeometry x="1455" y="520" width="40" height="20" as="geometry" />
        </mxCell>
        <mxCell id="PF2a_6IoUEOjOje82GA7-37" value="&lt;font color=&quot;#3224ff&quot;&gt;3&lt;/font&gt;" style="text;html=1;strokeColor=none;fillColor=none;align=center;verticalAlign=middle;whiteSpace=wrap;rounded=0;" parent="1" vertex="1">
          <mxGeometry x="1455" y="440" width="40" height="20" as="geometry" />
        </mxCell>
        <mxCell id="PF2a_6IoUEOjOje82GA7-38" value="&lt;font color=&quot;#3224ff&quot;&gt;4&lt;/font&gt;" style="text;html=1;strokeColor=none;fillColor=none;align=center;verticalAlign=middle;whiteSpace=wrap;rounded=0;" parent="1" vertex="1">
          <mxGeometry x="1455" y="775" width="40" height="20" as="geometry" />
        </mxCell>
        <mxCell id="PF2a_6IoUEOjOje82GA7-39" value="&lt;font color=&quot;#3224ff&quot;&gt;4&lt;/font&gt;" style="text;html=1;strokeColor=none;fillColor=none;align=center;verticalAlign=middle;whiteSpace=wrap;rounded=0;" parent="1" vertex="1">
          <mxGeometry x="1455" y="695" width="40" height="20" as="geometry" />
        </mxCell>
        <mxCell id="PF2a_6IoUEOjOje82GA7-40" value="&lt;font color=&quot;#3224ff&quot;&gt;4&lt;/font&gt;" style="text;html=1;strokeColor=none;fillColor=none;align=center;verticalAlign=middle;whiteSpace=wrap;rounded=0;" parent="1" vertex="1">
          <mxGeometry x="1455" y="615" width="40" height="20" as="geometry" />
        </mxCell>
        <mxCell id="PF2a_6IoUEOjOje82GA7-41" value="&lt;font color=&quot;#3224ff&quot;&gt;5&lt;/font&gt;" style="text;html=1;strokeColor=none;fillColor=none;align=center;verticalAlign=middle;whiteSpace=wrap;rounded=0;" parent="1" vertex="1">
          <mxGeometry x="1558" y="510" width="40" height="20" as="geometry" />
        </mxCell>
        <mxCell id="PF2a_6IoUEOjOje82GA7-42" value="&lt;font color=&quot;#3224ff&quot;&gt;1&lt;/font&gt;" style="text;html=1;strokeColor=none;fillColor=none;align=center;verticalAlign=middle;whiteSpace=wrap;rounded=0;" parent="1" vertex="1">
          <mxGeometry x="1910" y="120" width="40" height="20" as="geometry" />
        </mxCell>
        <mxCell id="PF2a_6IoUEOjOje82GA7-43" value="&lt;font color=&quot;#3224ff&quot;&gt;2&lt;/font&gt;" style="text;html=1;strokeColor=none;fillColor=none;align=center;verticalAlign=middle;whiteSpace=wrap;rounded=0;" parent="1" vertex="1">
          <mxGeometry x="1910" y="200" width="40" height="20" as="geometry" />
        </mxCell>
        <mxCell id="PF2a_6IoUEOjOje82GA7-44" value="&lt;font color=&quot;#3224ff&quot;&gt;3&lt;/font&gt;" style="text;html=1;strokeColor=none;fillColor=none;align=center;verticalAlign=middle;whiteSpace=wrap;rounded=0;" parent="1" vertex="1">
          <mxGeometry x="1910" y="280" width="40" height="20" as="geometry" />
        </mxCell>
        <mxCell id="PF2a_6IoUEOjOje82GA7-45" value="&lt;font color=&quot;#3224ff&quot;&gt;4&lt;/font&gt;" style="text;html=1;strokeColor=none;fillColor=none;align=center;verticalAlign=middle;whiteSpace=wrap;rounded=0;" parent="1" vertex="1">
          <mxGeometry x="1910" y="360" width="40" height="20" as="geometry" />
        </mxCell>
        <mxCell id="PF2a_6IoUEOjOje82GA7-46" value="&lt;font color=&quot;#3224ff&quot;&gt;5&lt;/font&gt;" style="text;html=1;strokeColor=none;fillColor=none;align=center;verticalAlign=middle;whiteSpace=wrap;rounded=0;" parent="1" vertex="1">
          <mxGeometry x="1910" y="440" width="40" height="20" as="geometry" />
        </mxCell>
        <mxCell id="PF2a_6IoUEOjOje82GA7-47" value="&lt;font color=&quot;#3224ff&quot;&gt;6&lt;/font&gt;" style="text;html=1;strokeColor=none;fillColor=none;align=center;verticalAlign=middle;whiteSpace=wrap;rounded=0;" parent="1" vertex="1">
          <mxGeometry x="1910" y="520" width="40" height="20" as="geometry" />
        </mxCell>
        <mxCell id="PF2a_6IoUEOjOje82GA7-48" value="&lt;font color=&quot;#3224ff&quot;&gt;7&lt;/font&gt;" style="text;html=1;strokeColor=none;fillColor=none;align=center;verticalAlign=middle;whiteSpace=wrap;rounded=0;" parent="1" vertex="1">
          <mxGeometry x="1910" y="595" width="40" height="20" as="geometry" />
        </mxCell>
        <mxCell id="PF2a_6IoUEOjOje82GA7-49" value="&lt;font color=&quot;#3224ff&quot;&gt;8&lt;/font&gt;" style="text;html=1;strokeColor=none;fillColor=none;align=center;verticalAlign=middle;whiteSpace=wrap;rounded=0;" parent="1" vertex="1">
          <mxGeometry x="1910" y="673" width="40" height="20" as="geometry" />
        </mxCell>
        <mxCell id="PF2a_6IoUEOjOje82GA7-50" value="&lt;font color=&quot;#3224ff&quot;&gt;9&lt;/font&gt;" style="text;html=1;strokeColor=none;fillColor=none;align=center;verticalAlign=middle;whiteSpace=wrap;rounded=0;" parent="1" vertex="1">
          <mxGeometry x="1910" y="750" width="40" height="20" as="geometry" />
        </mxCell>
        <mxCell id="PF2a_6IoUEOjOje82GA7-51" value="&lt;font color=&quot;#3224ff&quot;&gt;11&lt;/font&gt;" style="text;html=1;strokeColor=none;fillColor=none;align=center;verticalAlign=middle;whiteSpace=wrap;rounded=0;" parent="1" vertex="1">
          <mxGeometry x="2060" y="510" width="40" height="20" as="geometry" />
        </mxCell>
        <mxCell id="PF2a_6IoUEOjOje82GA7-52" value="&lt;font color=&quot;#3224ff&quot;&gt;10&lt;/font&gt;" style="text;html=1;strokeColor=none;fillColor=none;align=center;verticalAlign=middle;whiteSpace=wrap;rounded=0;" parent="1" vertex="1">
          <mxGeometry x="1910" y="832" width="40" height="20" as="geometry" />
        </mxCell>
        <mxCell id="PF2a_6IoUEOjOje82GA7-53" value="&lt;font color=&quot;#3224ff&quot;&gt;1&lt;/font&gt;" style="text;html=1;strokeColor=none;fillColor=none;align=center;verticalAlign=middle;whiteSpace=wrap;rounded=0;" parent="1" vertex="1">
          <mxGeometry x="2425" y="520" width="40" height="20" as="geometry" />
        </mxCell>
        <mxCell id="PF2a_6IoUEOjOje82GA7-54" value="&lt;font color=&quot;#3224ff&quot;&gt;2&lt;/font&gt;" style="text;html=1;strokeColor=none;fillColor=none;align=center;verticalAlign=middle;whiteSpace=wrap;rounded=0;" parent="1" vertex="1">
          <mxGeometry x="2425" y="600" width="40" height="20" as="geometry" />
        </mxCell>
        <mxCell id="PF2a_6IoUEOjOje82GA7-55" value="&lt;font color=&quot;#3224ff&quot;&gt;3&lt;/font&gt;" style="text;html=1;strokeColor=none;fillColor=none;align=center;verticalAlign=middle;whiteSpace=wrap;rounded=0;" parent="1" vertex="1">
          <mxGeometry x="2425" y="440" width="40" height="20" as="geometry" />
        </mxCell>
        <mxCell id="PF2a_6IoUEOjOje82GA7-56" value="&lt;font color=&quot;#3224ff&quot;&gt;4&lt;/font&gt;" style="text;html=1;strokeColor=none;fillColor=none;align=center;verticalAlign=middle;whiteSpace=wrap;rounded=0;" parent="1" vertex="1">
          <mxGeometry x="2525" y="510" width="40" height="20" as="geometry" />
        </mxCell>
        <mxCell id="PF2a_6IoUEOjOje82GA7-57" value="&lt;font color=&quot;#3224ff&quot;&gt;1&lt;/font&gt;" style="text;html=1;strokeColor=none;fillColor=none;align=center;verticalAlign=middle;whiteSpace=wrap;rounded=0;" parent="1" vertex="1">
          <mxGeometry x="2840" y="520" width="40" height="20" as="geometry" />
        </mxCell>
        <mxCell id="PF2a_6IoUEOjOje82GA7-58" value="&lt;font color=&quot;#3224ff&quot;&gt;2&lt;/font&gt;" style="text;html=1;strokeColor=none;fillColor=none;align=center;verticalAlign=middle;whiteSpace=wrap;rounded=0;" parent="1" vertex="1">
          <mxGeometry x="2980" y="520" width="40" height="20" as="geometry" />
        </mxCell>
        <mxCell id="PF2a_6IoUEOjOje82GA7-59" value="&lt;font color=&quot;#3224ff&quot;&gt;3&lt;/font&gt;" style="text;html=1;strokeColor=none;fillColor=none;align=center;verticalAlign=middle;whiteSpace=wrap;rounded=0;" parent="1" vertex="1">
          <mxGeometry x="3080" y="510" width="40" height="20" as="geometry" />
        </mxCell>
        <mxCell id="PF2a_6IoUEOjOje82GA7-60" value="&lt;font color=&quot;#3224ff&quot;&gt;phase requirement #&lt;/font&gt;" style="text;html=1;strokeColor=none;fillColor=none;align=center;verticalAlign=middle;whiteSpace=wrap;rounded=0;" parent="1" vertex="1">
          <mxGeometry x="505" y="935" width="115" height="20" as="geometry" />
        </mxCell>
        <mxCell id="eozMYImRqzOyyxvPkpBX-1" value="4" style="verticalLabelPosition=bottom;verticalAlign=top;html=1;shape=offPageConnector;rounded=0;size=0.3333333333333333;fillColor=#CCE5FF;" vertex="1" parent="1">
          <mxGeometry x="1135" y="440" width="30" height="30" as="geometry" />
        </mxCell>
        <mxCell id="eozMYImRqzOyyxvPkpBX-2" style="edgeStyle=orthogonalEdgeStyle;rounded=0;orthogonalLoop=1;jettySize=auto;html=1;entryX=0;entryY=0.5;entryDx=0;entryDy=0;entryPerimeter=0;" edge="1" source="eozMYImRqzOyyxvPkpBX-1" parent="1">
          <mxGeometry relative="1" as="geometry">
            <mxPoint x="1385" y="455" as="targetPoint" />
          </mxGeometry>
        </mxCell>
      </root>
    </mxGraphModel>
  </diagram>
</mxfile>
